# AST/ASF file generated using VICON BodyLanguage
# -----------------------------------------------
:version 1.10
:name VICON
:units
  mass 1.0
  length 0.45
  angle deg
:documentation
   .ast/.asf automatically generated from VICON data using
   VICON BodyBuilder and BodyLanguage model FoxedUp or BRILLIANT.MOD
:root
   order TX TY TZ RX RY RZ
   axis XYZ
   position 0 0 0  
   orientation 0 0 0 
:bonedata
  begin
     id 1 
     name lhipjoint
     direction 0.635376 -0.686425 0.353719 
     length 2.47244 
     axis 0 0 0  XYZ
  end
  begin
     id 2 
     name lfemur
     direction 0.34202 -0.939693 0  
     length 7.25268  
     axis 0 0 20  XYZ
    dof rx ry rz
    limits (-160.0 20.0)
           (-70.0 70.0)
           (-60.0 70.0)
  end
  begin
     id 3 
     name ltibia
     direction 0.34202 -0.939693 0   
     length 7.6767   
     axis 0 0 20   XYZ
    dof rx
    limits (-10.0 170.0)
  end
  begin
     id 4 
     name lfoot
     direction 0.0803374 -0.220725 0.972022   
     length 2.22945   
     axis -90 7.62852e-016 20   XYZ
    dof rx rz
    limits (-45.0 90.0)
           (-70.0 20.0)
  end
  begin
     id 5 
     name ltoes
     direction 1.53579e-011 -4.21994e-011 1   
     length 1.11848   
     axis -90 7.62852e-016 20   XYZ
    dof rx
    limits (-90.0 20.0)
  end
  begin
     id 6 
     name rhipjoint
     direction -0.664428 -0.664335 0.342336   
     length 2.55466  
     axis 0 0 0  XYZ 
  end
  begin
     id 7 
     name rfemur
     direction -0.34202 -0.939693 0   
     length 6.83172   
     axis 0 0 -20   XYZ
    dof rx ry rz
    limits (-160.0 20.0)
           (-70.0 70.0)
           (-70.0 60.0)
  end
  begin
     id 8 
     name rtibia
     direction -0.34202 -0.939693 0   
     length 7.62692   
     axis 0 0 -20   XYZ
    dof rx
    limits (-10.0 170.0)
 end
 begin
     id 9 
     name rfoot
     direction -0.0949276 -0.260811 0.960711   
     length 2.19684  
     axis -90 -7.62852e-016 -20   XYZ
    dof rx rz
    limits (-45.0 90.0)
           (-20.0 70.0)
  end
  begin
     id 10 
     name rtoes
     direction -1.53543e-011 -4.2183e-011 1   
     length 1.09848   
     axis -90 -7.62852e-016 -20   XYZ
    dof rx
    limits (-90.0 20.0)
  end
  begin
     id 11 
     name lowerback
     direction 0.0118782 0.999815 -0.0151555   
     length 2.15772   
     axis 0 0 0   XYZ
    dof rx ry rz
    limits (-20.0 45.0)
           (-30.0 30.0)
           (-30.0 30.0)
  end
  begin
     id 12 
     name upperback
     direction 0.00130825 0.999065 0.0432113   
     length 2.14863   
     axis 0 0 0   XYZ
    dof rx ry rz
    limits (-20.0 45.0)
           (-30.0 30.0)
           (-30.0 30.0)
  end
  begin
     id 13 
     name thorax
     direction -0.00347005 0.998773 0.0494011   
     length 2.14936   
     axis 0 0 0   XYZ
    dof rx ry rz
    limits (-20.0 45.0)
           (-30.0 30.0)
           (-30.0 30.0)
  end
  begin
     id 14 
     name lowerneck
     direction -0.0262159 0.99424 0.103921   
     length 1.69373   
     axis 0 0 0   XYZ
    dof rx ry rz
    limits (-20.0 45.0)
           (-30.0 30.0)
           (-30.0 30.0)
  end
  begin
     id 15 
     name upperneck
     direction 0.0353511 0.977394 -0.20845   
     length 1.70857   
     axis 0 0 0   XYZ
    dof rx ry rz
    limits (-20.0 45.0)
           (-30.0 30.0)
           (-30.0 30.0)
  end
  begin
     id 16
     name head
     direction 0.0139214 0.996594 -0.0812836  
     length 1.72777  
     axis 0 0 0   XYZ
    dof rx ry rz
    limits (-20.0 45.0)
           (-30.0 30.0)
           (-30.0 30.0)
  end
  begin
     id 17 
     name lclavicle
     direction 0.841247 0.537205 -0.0609508  
     length 3.55371  
     axis 0 0 0   XYZ
    dof ry rz
    limits (-20.0 10.0)
           (0.0 20.0)
  end
  begin
     id 18 
     name lhumerus
     direction 1 -4.48964e-011 1.60116e-018   
     length 4.91377   
     axis -180 -30 -90   XYZ
    dof rx ry rz
    limits (-60.0 90.0)
           (-90.0 90.0)
           (-90.0 90.0)
  end
  begin
     id 19
     name lradius
     direction 1 -4.48989e-011 -8.93847e-027   
     length 3.00291   
     axis -180 -30 -90   XYZ
    dof rx
    limits (-10.0 170.0)
  end
  begin
     id 20
     name lwrist
     direction 1 -4.48932e-011 -7.31504e-027   
     length 1.50145   
     axis 5.74121e-015 90 90   XYZ
    dof ry
    limits (-180.0 0.0)
 end
  begin
     id 21 
     name lhand
     direction 1 -4.48971e-011 -1.46301e-026   
     length 0.450922   
     axis 9.33524e-015 90 90   XYZ
    dof rx rz
    limits (-90.0 90.0)
           (-45.0 45.0)
  end
  begin
     id 22 
     name lfingers
     direction 1 -4.49039e-011 -2.92602e-026   
     length 0.363545   
     axis 1.86705e-014 90 90   XYZ
    dof rx
    limits (0.0 90.0)
  end
  begin
     id 23
     name lthumb
     direction 0.707107 -6.34941e-011 0.707107   
     length 0.52198   
     axis -90 45 2.85299e-015   XYZ
    dof rx rz
    limits (-45.0 45.0)
           (-45.0 45.0)
  end
  begin
     id 24 
     name rclavicle
     direction -0.825079 0.56158 -0.0622297   
     length 3.39909  
     axis 0 0 0   XYZ 
    dof ry rz
    limits (-10.0 20.0)
           (-20.0 0.0)
  end
  begin
     id 25 
     name rhumerus
     direction -1 -4.48965e-011 1.61691e-027  
     length 4.86725   
     axis -180 30 90   XYZ
    dof rx ry rz
    limits (-90.0 60.0)
           (-90.0 90.0)
           (-90.0 90.0)
  end
  begin
     id 26 
     name rradius
     direction -1 -4.48964e-011 -2.25776e-027   
     length 3.17144   
     axis -180 30 90   XYZ
    dof rx
    limits (-10.0 170.0)
  end
  begin
     id 27 
     name rwrist
     direction -1 -4.48961e-011 -7.31504e-027   
     length 1.58572   
     axis 5.74121e-015 -90 -90   XYZ
    dof ry
    limits (-180.0 0.0)
  end
  begin
     id 28
     name rhand
     direction -1 -4.49013e-011 -1.46301e-026   
     length 0.419368   
     axis 9.33524e-015 -90 -90   XYZ
    dof rx rz
    limits (-90.0 90.0)
           (-45.0 45.0)
  end
  begin
     id 29
     name rfingers
     direction -1 -4.489e-011 -2.92602e-026   
     length 0.338105   
     axis 1.86705e-014 -90 -90   XYZ
    dof rx
    limits (0.0 90.0)
  end
  begin
     id 30
     name rthumb
     direction -0.707107 -6.35022e-011 0.707107   
     length 0.485453   
     axis -90 -45 -2.85299e-015   XYZ
    dof rx rz
    limits (-45.0 45.0)
           (-45.0 45.0)
  end
:hierarchy
  begin
    root lhipjoint rhipjoint lowerback
    lhipjoint lfemur
    lfemur ltibia
    ltibia lfoot
    lfoot ltoes
    rhipjoint rfemur
    rfemur rtibia
    rtibia rfoot
    rfoot rtoes
    lowerback upperback
    upperback thorax
    thorax lowerneck lclavicle rclavicle
    lowerneck upperneck
    upperneck head
    lclavicle lhumerus
    lhumerus lradius
    lradius lwrist
    lwrist lhand lthumb
    lhand lfingers
    rclavicle rhumerus
    rhumerus rradius
    rradius rwrist
    rwrist rhand rthumb
    rhand rfingers
  end

#!OML:ASF H:\Swim 2\Project 1\Capture day 1\Session 1\male.ASF
:FULLY-SPECIFIED
:DEGREES
666
root 1.30034 15.1159 8.15736 111.886 30.6554 14.3867
lowerback -12.6272 4.60218 12.6702
upperback -6.56861 4.93891 2.8483
thorax 0.791166 2.35356 -3.38489
lowerneck -14.9873 -0.868651 -0.754087
upperneck 23.7342 1.56082 -9.26883
head 10.1394 -0.311366 -2.92811
rclavicle 3.81667e-014 -2.19657e-014
rhumerus 51.717 -21.1313 -12.8953
rradius 31.8089
rwrist 1.64296
rhand -25.0244 -2.37978
rfingers 7.12502
rthumb 1.48799 -32.3543
lclavicle 3.81667e-014 -2.19657e-014
lhumerus -685.362 -12.8082 678.552
lradius 34.3689
lwrist 74.861
lhand -28.2496 -6.6085
lfingers 7.12502
lthumb -1.62698 23.365
rfemur -52.2545 3.31201 17.1322
rtibia 22.0325
rfoot 35.7632 -5.76977
rtoes 27.7135
lfemur -35.6552 1.17749 -22.3248
ltibia 73.1412
lfoot -10.3568 -6.64004
ltoes -21.0305
667
root 1.26359 15.1216 8.14918 112.175 30.8931 14.7741
lowerback -12.6401 4.47195 12.647
upperback -6.63247 4.77217 2.93438
thorax 0.695608 2.26464 -3.3108
lowerneck -14.7234 -1.03228 -0.922651
upperneck 23.4887 1.44902 -9.64815
head 10.0003 -0.401619 -3.03714
rclavicle 7.31528e-014 9.34288e-015
rhumerus 49.9187 -20.6428 -12.4067
rradius 33.1495
rwrist 0.656871
rhand -24.2505 -2.03256
rfingers 7.12502
rthumb 2.23545 -32.0006
lclavicle 7.31528e-014 9.34288e-015
lhumerus -685.702 -7.64623 682.368
lradius 35.3119
lwrist 70.4756
lhand -25.5111 -6.69872
lfingers 7.12502
lthumb 1.0179 23.2786
rfemur -52.1676 3.12947 17.761
rtibia 23.3342
rfoot 35.8185 -5.37799
rtoes 27.7502
lfemur -36.3809 1.15891 -22.1582
ltibia 74.0562
lfoot -10.384 -6.77292
ltoes -20.7961
668
root 1.22811 15.1262 8.14256 112.393 31.0672 15.0872
lowerback -12.6167 4.31847 12.5721
upperback -6.68994 4.58432 2.99674
thorax 0.584511 2.16486 -3.23885
lowerneck -14.5096 -1.15563 -0.977754
upperneck 23.2709 1.38602 -10.1103
head 9.88444 -0.469815 -3.18953
rclavicle 2.54444e-014 -3.95581e-014
rhumerus 48.1183 -20.0543 -12.0533
rradius 34.5602
rwrist -0.168648
rhand -23.5429 -1.74275
rfingers 7.12502
rthumb 2.91876 -31.7025
lclavicle 2.54444e-014 -3.95581e-014
lhumerus -685.639 -3.60974 684.812
lradius 36.2604
lwrist 67.4736
lhand -22.9549 -6.88806
lfingers 7.12502
lthumb 3.48665 23.0632
rfemur -51.9894 2.94056 18.3407
rtibia 24.8376
rfoot 35.9003 -4.88309
rtoes 27.8019
lfemur -37.1448 1.14776 -22.0993
ltibia 74.7506
lfoot -10.4923 -6.7429
ltoes -20.7237
669
root 1.19403 15.1296 8.13731 112.528 31.1863 15.3159
lowerback -12.5573 4.15326 12.4505
upperback -6.73685 4.38959 3.03243
thorax 0.465459 2.06187 -3.17191
lowerneck -14.3329 -1.24433 -0.941498
upperneck 23.0658 1.35934 -10.6195
head 9.78256 -0.519187 -3.36999
rclavicle 7.31528e-014 -4.7112e-014
rhumerus 46.3162 -19.382 -11.8468
rradius 36.0162
rwrist -0.944674
rhand -22.9038 -1.53247
rfingers 7.12502
rthumb 3.53596 -31.4829
lclavicle 7.31528e-014 -4.7112e-014
lhumerus -685.406 -0.423132 686.283
lradius 37.1813
lwrist 65.4372
lhand -20.8768 -7.0252
lfingers 7.12502
lthumb 5.49326 22.8836
rfemur -51.6818 2.7585 18.8628
rtibia 26.4594
rfoot 35.969 -4.34023
rtoes 27.8516
lfemur -37.9182 1.14503 -22.1326
ltibia 75.196
lfoot -10.6441 -6.58552
ltoes -20.6957
670
root 1.16072 15.1318 8.13274 112.592 31.2504 15.4609
lowerback -12.4798 3.98969 12.2773
upperback -6.77345 4.20372 3.03607
thorax 0.350237 1.96446 -3.10916
lowerneck -14.1903 -1.31302 -0.836385
upperneck 22.8688 1.34685 -11.1453
head 9.69081 -0.558464 -3.56666
rclavicle -3.81667e-014 -6.90777e-014
rhumerus 44.5232 -18.663 -11.8214
rradius 37.4763
rwrist -1.74376
rhand -22.4099 -1.45135
rfingers 7.12502
rthumb 4.01298 -31.3933
lclavicle -3.81667e-014 -6.90777e-014
lhumerus -685.088 2.20697 687.121
lradius 38.0588
lwrist 64.1263
lhand -19.3541 -6.91996
lfingers 7.12502
lthumb 6.96334 22.9455
rfemur -51.2414 2.57406 19.3239
rtibia 28.133
rfoot 36.003 -3.76439
rtoes 27.906
lfemur -38.7015 1.13974 -22.2459
ltibia 75.378
lfoot -10.7983 -6.34369
ltoes -20.549
671
root 1.12763 15.1333 8.12859 112.608 31.2709 15.5217
lowerback -12.4089 3.84336 12.0473
upperback -6.80775 4.04563 3.01112
thorax 0.245536 1.88287 -3.03992
lowerneck -14.0677 -1.37606 -0.694617
upperneck 22.679 1.32721 -11.6495
head 9.60446 -0.595901 -3.76298
rclavicle 6.99722e-014 7.15625e-014
rhumerus 42.7482 -17.9304 -11.9934
rradius 38.9016
rwrist -2.59442
rhand -22.059 -1.52138
rfingers 7.12502
rthumb 4.35176 -31.4567
lclavicle 6.99722e-014 7.15625e-014
lhumerus -684.668 4.46516 687.615
lradius 38.8526
lwrist 63.3131
lhand -18.4566 -6.5483
lfingers 7.12502
lthumb 7.8296 23.2867
rfemur -50.6842 2.42806 19.7022
rtibia 29.8
rfoot 35.9722 -3.21852
rtoes 28.0065
lfemur -39.5291 1.13967 -22.4251
ltibia 75.3103
lfoot -10.9614 -5.99931
ltoes -20.3974
672
root 1.09375 15.1349 8.12396 112.609 31.2718 15.5074
lowerback -12.361 3.72227 11.7805
upperback -6.85233 3.92305 2.96309
thorax 0.148021 1.82038 -2.96783
lowerneck -13.9593 -1.43877 -0.543036
upperneck 22.501 1.29443 -12.1076
head 9.52337 -0.63415 -3.9465
rclavicle 3.81667e-014 2.70347e-014
rhumerus 41.0472 -17.2354 -12.4622
rradius 40.2324
rwrist -3.37588
rhand -21.8114 -1.71897
rfingers 7.12502
rthumb 4.59087 -31.6492
lclavicle 3.81667e-014 2.70347e-014
lhumerus -684.11 6.48958 687.984
lradius 39.5175
lwrist 62.8367
lhand -18.0985 -5.98215
lfingers 7.12502
lthumb 8.17528 23.8397
rfemur -50.0438 2.33175 20.019
rtibia 31.4239
rfoot 35.8725 -2.71464
rtoes 28.1381
lfemur -40.4433 1.14796 -22.6342
ltibia 75.0146
lfoot -11.1363 -5.57961
ltoes -20.2872
673
root 1.05867 15.1369 8.11856 112.612 31.26 15.4223
lowerback -12.3462 3.62731 11.4849
upperback -6.9132 3.83569 2.89307
thorax 0.0564693 1.77658 -2.89597
lowerneck -13.8687 -1.50437 -0.395399
upperneck 22.3445 1.2472 -12.511
head 9.45137 -0.674722 -4.11249
rclavicle 2.22639e-014 7.95139e-015
rhumerus 39.4621 -16.6244 -13.2803
rradius 41.4291
rwrist -3.9966
rhand -21.609 -2.00117
rfingers 7.12502
rthumb 4.7863 -31.9271
lclavicle 2.22639e-014 7.95139e-015
lhumerus -683.399 8.36502 688.337
lradius 40.035
lwrist 62.6329
lhand -18.1501 -5.35656
lfingers 7.12502
lthumb 8.12543 24.4672
rfemur -49.3396 2.30579 20.2711
rtibia 32.9804
rfoot 35.6801 -2.27828
rtoes 28.2417
lfemur -41.4634 1.15942 -22.8595
ltibia 74.5079
lfoot -11.3358 -5.07522
ltoes -20.3076
674
root 1.02202 15.1396 8.11227 112.629 31.2524 15.2689
lowerback -12.3667 3.55517 11.1744
upperback -6.99646 3.77821 2.80801
thorax -0.035438 1.74817 -2.82576
lowerneck -13.8066 -1.5724 -0.248922
upperneck 22.2142 1.1895 -12.8704
head 9.39244 -0.717395 -4.2653
rclavicle -3.18055e-015 -1.20066e-013
rhumerus 38.0257 -16.1268 -14.4694
rradius 42.4781
rwrist -4.39147
rhand -21.3578 -2.34568
rfingers 7.12502
rthumb 5.02884 -32.266
lclavicle -3.18055e-015 -1.20066e-013
lhumerus -682.565 10.1389 688.709
lradius 40.4177
lwrist 62.6746
lhand -18.4034 -4.81552
lfingers 7.12502
lthumb 7.881 25.0176
rfemur -48.5966 2.34563 20.4867
rtibia 34.4583
rfoot 35.402 -1.8976
rtoes 28.2487
lfemur -42.5996 1.16979 -23.0724
ltibia 73.7987
lfoot -11.5566 -4.49929
ltoes -20.4854
